<svg xmlns="http://www.w3.org/2000/svg" xmlns:xlink="http://www.w3.org/1999/xlink" width="64" zoomAndPan="magnify" viewBox="0 0 48 48" height="64" preserveAspectRatio="xMidYMid meet" version="1.0"><defs><clipPath id="f6ec1c7ab3"><path d="M 2.175781 1.382812 L 45.523438 1.382812 L 45.523438 45.464844 L 2.175781 45.464844 Z M 2.175781 1.382812 " clip-rule="nonzero"/></clipPath></defs><g clip-path="url(#f6ec1c7ab3)"><path fill="#6d6d6d" d="M 41.847656 5.835938 L 38.515625 5.835938 L 38.8125 5.171875 C 38.929688 4.902344 38.871094 4.585938 38.664062 4.375 L 37.292969 3.003906 C 37.082031 2.796875 36.765625 2.738281 36.496094 2.859375 L 35.664062 3.226562 C 35.253906 3.003906 34.816406 2.824219 34.367188 2.6875 L 34.042969 1.839844 C 33.9375 1.566406 33.671875 1.382812 33.375 1.382812 L 31.4375 1.382812 C 31.140625 1.382812 30.875 1.566406 30.769531 1.839844 L 30.445312 2.6875 C 29.992188 2.824219 29.558594 3.003906 29.148438 3.226562 L 28.316406 2.855469 C 28.046875 2.738281 27.730469 2.796875 27.519531 3.003906 L 26.148438 4.375 C 25.941406 4.585938 25.882812 4.902344 26 5.171875 L 26.296875 5.835938 L 24.078125 5.835938 L 24.078125 4.371094 C 24.078125 3.105469 23.046875 2.070312 21.777344 2.070312 L 21.144531 2.070312 C 19.875 2.070312 18.84375 3.105469 18.84375 4.371094 L 18.84375 5.835938 L 6.144531 5.835938 C 3.960938 5.835938 2.1875 7.613281 2.1875 9.792969 L 2.1875 32.105469 C 2.1875 34.289062 3.960938 36.0625 6.144531 36.0625 L 16.652344 36.0625 L 16.652344 39.789062 L 12.429688 39.789062 C 10.511719 39.789062 8.949219 41.101562 8.949219 42.714844 L 8.949219 44.921875 C 8.949219 45.316406 9.269531 45.636719 9.664062 45.636719 L 38.328125 45.636719 C 38.722656 45.636719 39.042969 45.316406 39.042969 44.921875 L 39.042969 42.714844 C 39.042969 41.101562 37.480469 39.789062 35.5625 39.789062 L 31.339844 39.789062 L 31.339844 36.0625 L 41.847656 36.0625 C 44.027344 36.0625 45.804688 34.289062 45.804688 32.105469 L 45.804688 9.792969 C 45.804688 7.613281 44.027344 5.835938 41.847656 5.835938 Z M 27.121094 8 C 27.253906 7.441406 27.476562 6.910156 27.777344 6.417969 C 27.902344 6.21875 27.917969 5.96875 27.824219 5.753906 L 27.503906 5.039062 L 28.183594 4.359375 L 28.898438 4.679688 C 29.113281 4.773438 29.363281 4.757812 29.5625 4.632812 C 30.054688 4.332031 30.585938 4.113281 31.144531 3.976562 C 31.375 3.925781 31.5625 3.761719 31.644531 3.539062 L 31.925781 2.8125 L 32.886719 2.8125 L 33.167969 3.539062 C 33.25 3.761719 33.4375 3.925781 33.667969 3.980469 C 34.226562 4.113281 34.757812 4.332031 35.25 4.632812 C 35.449219 4.757812 35.699219 4.773438 35.914062 4.679688 L 36.628906 4.359375 L 37.308594 5.039062 L 36.988281 5.753906 C 36.894531 5.96875 36.910156 6.21875 37.035156 6.417969 C 37.335938 6.910156 37.558594 7.441406 37.691406 8 C 37.746094 8.230469 37.910156 8.417969 38.128906 8.5 L 38.859375 8.78125 L 38.859375 9.742188 L 38.128906 10.023438 C 37.910156 10.105469 37.746094 10.292969 37.691406 10.523438 C 37.558594 11.082031 37.335938 11.613281 37.035156 12.105469 C 36.910156 12.304688 36.894531 12.554688 36.988281 12.769531 L 37.308594 13.484375 L 36.628906 14.164062 L 35.914062 13.84375 C 35.699219 13.75 35.449219 13.765625 35.25 13.890625 C 34.757812 14.191406 34.226562 14.414062 33.667969 14.546875 C 33.4375 14.601562 33.25 14.765625 33.167969 14.984375 L 32.886719 15.714844 L 31.925781 15.714844 L 31.644531 14.984375 C 31.5625 14.765625 31.375 14.601562 31.144531 14.546875 C 30.585938 14.414062 30.054688 14.191406 29.5625 13.890625 C 29.363281 13.765625 29.113281 13.75 28.898438 13.847656 L 28.183594 14.164062 L 27.503906 13.484375 L 27.824219 12.769531 C 27.917969 12.554688 27.902344 12.304688 27.777344 12.105469 C 27.476562 11.613281 27.253906 11.082031 27.121094 10.523438 C 27.066406 10.292969 26.902344 10.109375 26.683594 10.023438 L 25.953125 9.742188 L 25.953125 8.78125 L 26.683594 8.5 C 26.902344 8.417969 27.066406 8.230469 27.121094 8 Z M 18.9375 20.847656 L 20.84375 24.144531 C 20.96875 24.367188 21.207031 24.503906 21.460938 24.503906 C 21.714844 24.503906 21.953125 24.367188 22.078125 24.144531 L 23.984375 20.847656 C 24.046875 20.738281 24.078125 20.617188 24.078125 20.492188 L 24.078125 9.976562 L 24.527344 9.976562 L 24.527344 10.230469 C 24.527344 10.527344 24.707031 10.792969 24.984375 10.898438 L 25.832031 11.226562 C 25.96875 11.675781 26.148438 12.109375 26.371094 12.523438 L 26 13.355469 C 25.882812 13.625 25.941406 13.9375 26.148438 14.148438 L 27.519531 15.519531 C 27.730469 15.726562 28.046875 15.785156 28.316406 15.667969 L 29.144531 15.296875 C 29.558594 15.523438 29.992188 15.703125 30.445312 15.835938 L 30.769531 16.683594 C 30.875 16.960938 31.140625 17.140625 31.4375 17.140625 L 33.375 17.140625 C 33.671875 17.140625 33.9375 16.960938 34.042969 16.683594 L 34.367188 15.835938 C 34.816406 15.703125 35.253906 15.519531 35.664062 15.296875 L 36.496094 15.667969 C 36.765625 15.789062 37.082031 15.726562 37.292969 15.519531 L 38.664062 14.148438 C 38.871094 13.9375 38.929688 13.625 38.8125 13.355469 L 38.441406 12.523438 C 38.664062 12.109375 38.84375 11.675781 38.980469 11.226562 L 39.828125 10.898438 C 40.101562 10.792969 40.285156 10.527344 40.285156 10.230469 L 40.285156 9.976562 L 41.664062 9.976562 L 41.664062 29.171875 L 6.328125 29.171875 L 6.328125 9.976562 L 18.84375 9.976562 L 18.84375 20.492188 C 18.84375 20.617188 18.875 20.738281 18.9375 20.847656 Z M 20.792969 21.203125 L 22.128906 21.203125 L 21.460938 22.359375 Z M 25.84375 7.265625 C 25.839844 7.277344 25.835938 7.289062 25.832031 7.300781 L 24.984375 7.625 C 24.707031 7.730469 24.527344 7.996094 24.527344 8.292969 L 24.527344 8.546875 L 24.078125 8.546875 L 24.078125 7.265625 Z M 21.144531 3.5 L 21.777344 3.5 C 22.261719 3.5 22.652344 3.890625 22.652344 4.371094 L 22.652344 19.777344 L 20.269531 19.777344 L 20.269531 4.371094 C 20.269531 3.890625 20.664062 3.5 21.144531 3.5 Z M 37.613281 42.714844 L 37.613281 44.210938 L 10.375 44.210938 L 10.375 42.714844 C 10.375 41.902344 11.316406 41.21875 12.429688 41.21875 L 35.5625 41.21875 C 36.675781 41.21875 37.613281 41.902344 37.613281 42.714844 Z M 29.910156 39.789062 L 18.078125 39.789062 L 18.078125 36.0625 L 29.910156 36.0625 Z M 44.375 32.105469 C 44.375 33.5 43.242188 34.636719 41.847656 34.636719 L 6.144531 34.636719 C 4.75 34.636719 3.613281 33.5 3.613281 32.105469 L 3.613281 9.792969 C 3.613281 8.398438 4.75 7.265625 6.144531 7.265625 L 18.84375 7.265625 L 18.84375 8.546875 L 6.0625 8.546875 C 5.421875 8.546875 4.898438 9.070312 4.898438 9.710938 L 4.898438 29.886719 C 4.898438 30.28125 5.21875 30.601562 5.613281 30.601562 L 42.378906 30.601562 C 42.773438 30.601562 43.09375 30.28125 43.09375 29.886719 L 43.09375 9.710938 C 43.09375 9.070312 42.570312 8.546875 41.929688 8.546875 L 40.285156 8.546875 L 40.285156 8.292969 C 40.285156 7.996094 40.105469 7.734375 39.828125 7.625 L 38.980469 7.300781 C 38.976562 7.289062 38.972656 7.277344 38.96875 7.265625 L 41.847656 7.265625 C 43.242188 7.265625 44.375 8.398438 44.375 9.792969 Z M 32.40625 13.359375 C 34.664062 13.359375 36.503906 11.519531 36.503906 9.261719 C 36.503906 7.003906 34.664062 5.167969 32.40625 5.167969 C 30.148438 5.167969 28.308594 7.003906 28.308594 9.261719 C 28.308594 11.519531 30.148438 13.359375 32.40625 13.359375 Z M 32.40625 6.59375 C 33.878906 6.59375 35.074219 7.789062 35.074219 9.261719 C 35.074219 10.734375 33.878906 11.929688 32.40625 11.929688 C 30.933594 11.929688 29.738281 10.734375 29.738281 9.261719 C 29.738281 7.789062 30.933594 6.59375 32.40625 6.59375 Z M 31.234375 26.660156 L 33.070312 19.800781 C 33.171875 19.417969 33.566406 19.191406 33.945312 19.292969 C 34.324219 19.394531 34.550781 19.789062 34.449219 20.167969 L 32.613281 27.027344 C 32.527344 27.347656 32.238281 27.558594 31.921875 27.558594 C 31.863281 27.558594 31.800781 27.550781 31.738281 27.535156 C 31.355469 27.429688 31.132812 27.039062 31.234375 26.660156 Z M 26.414062 23.414062 C 26.414062 23.203125 26.507812 23.003906 26.667969 22.867188 L 29.664062 20.34375 C 29.964844 20.089844 30.414062 20.128906 30.667969 20.429688 C 30.921875 20.730469 30.882812 21.183594 30.582031 21.4375 L 28.234375 23.414062 L 30.582031 25.390625 C 30.882812 25.644531 30.921875 26.097656 30.667969 26.398438 C 30.527344 26.566406 30.324219 26.652344 30.121094 26.652344 C 29.960938 26.652344 29.796875 26.597656 29.664062 26.484375 L 26.667969 23.960938 C 26.507812 23.824219 26.414062 23.625 26.414062 23.414062 Z M 35.101562 25.390625 L 37.445312 23.414062 L 35.101562 21.4375 C 34.796875 21.183594 34.761719 20.730469 35.015625 20.429688 C 35.269531 20.128906 35.71875 20.089844 36.019531 20.34375 L 39.015625 22.867188 C 39.175781 23.003906 39.269531 23.203125 39.269531 23.414062 C 39.269531 23.625 39.175781 23.824219 39.015625 23.960938 L 36.019531 26.484375 C 35.886719 26.597656 35.722656 26.652344 35.558594 26.652344 C 35.355469 26.652344 35.15625 26.566406 35.015625 26.398438 C 34.761719 26.097656 34.796875 25.644531 35.101562 25.390625 Z M 8.75 25.976562 L 23.609375 25.976562 C 24.003906 25.976562 24.324219 26.296875 24.324219 26.691406 C 24.324219 27.085938 24.003906 27.40625 23.609375 27.40625 L 8.75 27.40625 C 8.355469 27.40625 8.035156 27.085938 8.035156 26.691406 C 8.035156 26.296875 8.355469 25.976562 8.75 25.976562 Z M 7.984375 20.933594 C 7.984375 20.539062 8.304688 20.21875 8.699219 20.21875 L 16.421875 20.21875 C 16.816406 20.21875 17.132812 20.539062 17.132812 20.933594 C 17.132812 21.328125 16.816406 21.648438 16.421875 21.648438 L 8.699219 21.648438 C 8.304688 21.648438 7.984375 21.328125 7.984375 20.933594 Z M 8.011719 23.8125 C 8.011719 23.417969 8.328125 23.097656 8.722656 23.097656 L 16.445312 23.097656 C 16.839844 23.097656 17.160156 23.417969 17.160156 23.8125 C 17.160156 24.207031 16.839844 24.527344 16.445312 24.527344 L 8.722656 24.527344 C 8.328125 24.527344 8.011719 24.207031 8.011719 23.8125 Z M 8.035156 12.296875 C 8.035156 11.90625 8.355469 11.585938 8.75 11.585938 L 16.472656 11.585938 C 16.867188 11.585938 17.183594 11.90625 17.183594 12.296875 C 17.183594 12.691406 16.867188 13.011719 16.472656 13.011719 L 8.75 13.011719 C 8.355469 13.011719 8.035156 12.691406 8.035156 12.296875 Z M 8.011719 15.175781 C 8.011719 14.78125 8.328125 14.464844 8.722656 14.464844 L 16.445312 14.464844 C 16.839844 14.464844 17.160156 14.78125 17.160156 15.175781 C 17.160156 15.570312 16.839844 15.890625 16.445312 15.890625 L 8.722656 15.890625 C 8.328125 15.890625 8.011719 15.570312 8.011719 15.175781 Z M 7.984375 18.054688 C 7.984375 17.660156 8.304688 17.339844 8.699219 17.339844 L 16.421875 17.339844 C 16.816406 17.339844 17.132812 17.660156 17.132812 18.054688 C 17.132812 18.449219 16.816406 18.769531 16.421875 18.769531 L 8.699219 18.769531 C 8.304688 18.769531 7.984375 18.449219 7.984375 18.054688 Z M 7.984375 18.054688 " fill-opacity="1" fill-rule="nonzero"/></g></svg>