<svg xmlns="http://www.w3.org/2000/svg" xmlns:xlink="http://www.w3.org/1999/xlink" width="64" zoomAndPan="magnify" viewBox="0 0 48 48" height="64" preserveAspectRatio="xMidYMid meet" version="1.0"><defs><clipPath id="3bee613c77"><path d="M 2.839844 4.703125 L 45.453125 4.703125 L 45.453125 41.4375 L 2.839844 41.4375 Z M 2.839844 4.703125 " clip-rule="nonzero"/></clipPath></defs><g clip-path="url(#3bee613c77)"><path fill="#6d6d6d" d="M 4.164062 6.039062 L 4.164062 39.757812 L 43.832031 39.757812 L 43.832031 6.039062 Z M 4.164062 4.714844 L 43.832031 4.714844 C 44.5625 4.714844 45.15625 5.308594 45.15625 6.039062 L 45.15625 39.757812 C 45.15625 40.488281 44.5625 41.078125 43.832031 41.078125 L 4.164062 41.078125 C 3.433594 41.078125 2.839844 40.488281 2.839844 39.757812 L 2.839844 6.039062 C 2.839844 5.308594 3.433594 4.714844 4.164062 4.714844 Z M 5.816406 9.675781 C 5.085938 9.675781 4.492188 9.082031 4.492188 8.351562 C 4.492188 7.621094 5.085938 7.03125 5.816406 7.03125 C 6.546875 7.03125 7.136719 7.621094 7.136719 8.351562 C 7.136719 9.082031 6.546875 9.675781 5.816406 9.675781 Z M 5.816406 9.011719 C 6.179688 9.011719 6.476562 8.71875 6.476562 8.351562 C 6.476562 7.988281 6.179688 7.691406 5.816406 7.691406 C 5.449219 7.691406 5.15625 7.988281 5.15625 8.351562 C 5.15625 8.71875 5.449219 9.011719 5.816406 9.011719 Z M 9.121094 9.675781 C 8.390625 9.675781 7.800781 9.082031 7.800781 8.351562 C 7.800781 7.621094 8.390625 7.03125 9.121094 7.03125 C 9.851562 7.03125 10.445312 7.621094 10.445312 8.351562 C 10.445312 9.082031 9.851562 9.675781 9.121094 9.675781 Z M 9.121094 9.011719 C 9.488281 9.011719 9.78125 8.71875 9.78125 8.351562 C 9.78125 7.988281 9.488281 7.691406 9.121094 7.691406 C 8.757812 7.691406 8.460938 7.988281 8.460938 8.351562 C 8.460938 8.71875 8.757812 9.011719 9.121094 9.011719 Z M 12.425781 9.675781 C 11.695312 9.675781 11.105469 9.082031 11.105469 8.351562 C 11.105469 7.621094 11.695312 7.03125 12.425781 7.03125 C 13.15625 7.03125 13.75 7.621094 13.75 8.351562 C 13.75 9.082031 13.15625 9.675781 12.425781 9.675781 Z M 12.425781 9.011719 C 12.792969 9.011719 13.089844 8.71875 13.089844 8.351562 C 13.089844 7.988281 12.792969 7.691406 12.425781 7.691406 C 12.0625 7.691406 11.765625 7.988281 11.765625 8.351562 C 11.765625 8.71875 12.0625 9.011719 12.425781 9.011719 Z M 4.164062 10.664062 L 43.832031 10.664062 L 43.832031 11.988281 L 4.164062 11.988281 Z M 7.46875 14.632812 C 7.105469 14.632812 6.808594 14.929688 6.808594 15.292969 L 6.808594 22.566406 C 6.808594 22.933594 7.105469 23.226562 7.46875 23.226562 L 23.335938 23.226562 C 23.703125 23.226562 23.996094 22.933594 23.996094 22.566406 L 23.996094 15.292969 C 23.996094 14.929688 23.703125 14.632812 23.335938 14.632812 Z M 7.46875 13.972656 L 23.335938 13.972656 C 24.066406 13.972656 24.660156 14.5625 24.660156 15.292969 L 24.660156 22.566406 C 24.660156 23.296875 24.066406 23.890625 23.335938 23.890625 L 7.46875 23.890625 C 6.738281 23.890625 6.148438 23.296875 6.148438 22.566406 L 6.148438 15.292969 C 6.148438 14.5625 6.738281 13.972656 7.46875 13.972656 Z M 27.304688 15.292969 L 41.1875 15.292969 C 41.554688 15.292969 41.847656 15.589844 41.847656 15.957031 C 41.847656 16.320312 41.554688 16.617188 41.1875 16.617188 L 27.304688 16.617188 C 26.9375 16.617188 26.640625 16.320312 26.640625 15.957031 C 26.640625 15.589844 26.9375 15.292969 27.304688 15.292969 Z M 26.972656 17.9375 L 38.210938 17.9375 C 38.394531 17.9375 38.542969 18.085938 38.542969 18.269531 C 38.542969 18.453125 38.394531 18.601562 38.210938 18.601562 L 26.972656 18.601562 C 26.789062 18.601562 26.640625 18.453125 26.640625 18.269531 C 26.640625 18.085938 26.789062 17.9375 26.972656 17.9375 Z M 26.972656 19.261719 L 38.210938 19.261719 C 38.394531 19.261719 38.542969 19.410156 38.542969 19.589844 C 38.542969 19.773438 38.394531 19.921875 38.210938 19.921875 L 26.972656 19.921875 C 26.789062 19.921875 26.640625 19.773438 26.640625 19.589844 C 26.640625 19.410156 26.789062 19.261719 26.972656 19.261719 Z M 26.972656 20.582031 L 38.210938 20.582031 C 38.394531 20.582031 38.542969 20.730469 38.542969 20.914062 C 38.542969 21.097656 38.394531 21.246094 38.210938 21.246094 L 26.972656 21.246094 C 26.789062 21.246094 26.640625 21.097656 26.640625 20.914062 C 26.640625 20.730469 26.789062 20.582031 26.972656 20.582031 Z M 26.972656 21.90625 L 31.601562 21.90625 C 31.785156 21.90625 31.929688 22.054688 31.929688 22.234375 C 31.929688 22.417969 31.785156 22.566406 31.601562 22.566406 L 26.972656 22.566406 C 26.789062 22.566406 26.640625 22.417969 26.640625 22.234375 C 26.640625 22.054688 26.789062 21.90625 26.972656 21.90625 Z M 40.527344 26.535156 L 32.59375 26.535156 C 32.226562 26.535156 31.929688 26.828125 31.929688 27.195312 L 31.929688 31.824219 C 31.929688 32.1875 32.226562 32.484375 32.59375 32.484375 L 40.527344 32.484375 C 40.890625 32.484375 41.1875 32.1875 41.1875 31.824219 L 41.1875 27.195312 C 41.1875 26.828125 40.890625 26.535156 40.527344 26.535156 Z M 40.527344 25.871094 C 41.257812 25.871094 41.847656 26.464844 41.847656 27.195312 L 41.847656 31.824219 C 41.847656 32.554688 41.257812 33.144531 40.527344 33.144531 L 32.59375 33.144531 C 31.863281 33.144531 31.269531 32.554688 31.269531 31.824219 L 31.269531 27.195312 C 31.269531 26.464844 31.863281 25.871094 32.59375 25.871094 Z M 27.964844 26.535156 L 20.03125 26.535156 C 19.664062 26.535156 19.371094 26.828125 19.371094 27.195312 L 19.371094 31.824219 C 19.371094 32.1875 19.664062 32.484375 20.03125 32.484375 L 27.964844 32.484375 C 28.328125 32.484375 28.625 32.1875 28.625 31.824219 L 28.625 27.195312 C 28.625 26.828125 28.328125 26.535156 27.964844 26.535156 Z M 27.964844 25.871094 C 28.695312 25.871094 29.285156 26.464844 29.285156 27.195312 L 29.285156 31.824219 C 29.285156 32.554688 28.695312 33.144531 27.964844 33.144531 L 20.03125 33.144531 C 19.300781 33.144531 18.707031 32.554688 18.707031 31.824219 L 18.707031 27.195312 C 18.707031 26.464844 19.300781 25.871094 20.03125 25.871094 Z M 15.402344 26.535156 L 7.46875 26.535156 C 7.105469 26.535156 6.808594 26.828125 6.808594 27.195312 L 6.808594 31.824219 C 6.808594 32.1875 7.105469 32.484375 7.46875 32.484375 L 15.402344 32.484375 C 15.769531 32.484375 16.0625 32.1875 16.0625 31.824219 L 16.0625 27.195312 C 16.0625 26.828125 15.769531 26.535156 15.402344 26.535156 Z M 15.402344 25.871094 C 16.132812 25.871094 16.726562 26.464844 16.726562 27.195312 L 16.726562 31.824219 C 16.726562 32.554688 16.132812 33.144531 15.402344 33.144531 L 7.46875 33.144531 C 6.738281 33.144531 6.148438 32.554688 6.148438 31.824219 L 6.148438 27.195312 C 6.148438 26.464844 6.738281 25.871094 7.46875 25.871094 Z M 6.476562 34.46875 L 16.394531 34.46875 C 16.578125 34.46875 16.726562 34.617188 16.726562 34.796875 C 16.726562 34.980469 16.578125 35.128906 16.394531 35.128906 L 6.476562 35.128906 C 6.292969 35.128906 6.148438 34.980469 6.148438 34.796875 C 6.148438 34.617188 6.292969 34.46875 6.476562 34.46875 Z M 6.476562 35.789062 L 16.394531 35.789062 C 16.578125 35.789062 16.726562 35.9375 16.726562 36.121094 C 16.726562 36.304688 16.578125 36.449219 16.394531 36.449219 L 6.476562 36.449219 C 6.292969 36.449219 6.148438 36.304688 6.148438 36.121094 C 6.148438 35.9375 6.292969 35.789062 6.476562 35.789062 Z M 6.476562 37.113281 L 11.105469 37.113281 C 11.289062 37.113281 11.4375 37.261719 11.4375 37.441406 C 11.4375 37.625 11.289062 37.773438 11.105469 37.773438 L 6.476562 37.773438 C 6.292969 37.773438 6.148438 37.625 6.148438 37.441406 C 6.148438 37.261719 6.292969 37.113281 6.476562 37.113281 Z M 19.039062 34.46875 L 28.957031 34.46875 C 29.140625 34.46875 29.285156 34.617188 29.285156 34.796875 C 29.285156 34.980469 29.140625 35.128906 28.957031 35.128906 L 19.039062 35.128906 C 18.855469 35.128906 18.707031 34.980469 18.707031 34.796875 C 18.707031 34.617188 18.855469 34.46875 19.039062 34.46875 Z M 19.039062 35.789062 L 28.957031 35.789062 C 29.140625 35.789062 29.285156 35.9375 29.285156 36.121094 C 29.285156 36.304688 29.140625 36.449219 28.957031 36.449219 L 19.039062 36.449219 C 18.855469 36.449219 18.707031 36.304688 18.707031 36.121094 C 18.707031 35.9375 18.855469 35.789062 19.039062 35.789062 Z M 19.039062 37.113281 L 23.667969 37.113281 C 23.851562 37.113281 23.996094 37.261719 23.996094 37.441406 C 23.996094 37.625 23.851562 37.773438 23.667969 37.773438 L 19.039062 37.773438 C 18.855469 37.773438 18.707031 37.625 18.707031 37.441406 C 18.707031 37.261719 18.855469 37.113281 19.039062 37.113281 Z M 31.601562 34.46875 L 41.519531 34.46875 C 41.699219 34.46875 41.847656 34.617188 41.847656 34.796875 C 41.847656 34.980469 41.699219 35.128906 41.519531 35.128906 L 31.601562 35.128906 C 31.417969 35.128906 31.269531 34.980469 31.269531 34.796875 C 31.269531 34.617188 31.417969 34.46875 31.601562 34.46875 Z M 31.601562 35.789062 L 41.519531 35.789062 C 41.699219 35.789062 41.847656 35.9375 41.847656 36.121094 C 41.847656 36.304688 41.699219 36.449219 41.519531 36.449219 L 31.601562 36.449219 C 31.417969 36.449219 31.269531 36.304688 31.269531 36.121094 C 31.269531 35.9375 31.417969 35.789062 31.601562 35.789062 Z M 31.601562 37.113281 L 36.230469 37.113281 C 36.410156 37.113281 36.558594 37.261719 36.558594 37.441406 C 36.558594 37.625 36.410156 37.773438 36.230469 37.773438 L 31.601562 37.773438 C 31.417969 37.773438 31.269531 37.625 31.269531 37.441406 C 31.269531 37.261719 31.417969 37.113281 31.601562 37.113281 Z M 31.601562 37.113281 " fill-opacity="1" fill-rule="nonzero"/></g></svg>