<svg xmlns="http://www.w3.org/2000/svg" xmlns:xlink="http://www.w3.org/1999/xlink" width="64" zoomAndPan="magnify" viewBox="0 0 48 48" height="64" preserveAspectRatio="xMidYMid meet" version="1.0"><defs><clipPath id="b724004ac7"><path d="M 17 26 L 45.34375 26 L 45.34375 44.851562 L 17 44.851562 Z M 17 26 " clip-rule="nonzero"/></clipPath><clipPath id="0d7b39c6b9"><path d="M 2.730469 28 L 17 28 L 17 39 L 2.730469 39 Z M 2.730469 28 " clip-rule="nonzero"/></clipPath><clipPath id="0315ba2325"><path d="M 2.730469 18 L 34 18 L 34 30 L 2.730469 30 Z M 2.730469 18 " clip-rule="nonzero"/></clipPath><clipPath id="c32faa7b01"><path d="M 2.730469 2.242188 L 34 2.242188 L 34 10 L 2.730469 10 Z M 2.730469 2.242188 " clip-rule="nonzero"/></clipPath><clipPath id="3285092806"><path d="M 2.730469 8 L 34 8 L 34 20 L 2.730469 20 Z M 2.730469 8 " clip-rule="nonzero"/></clipPath></defs><g clip-path="url(#b724004ac7)"><path fill="#6d6d6d" d="M 23.996094 36.417969 C 22.320312 36.417969 20.957031 35.054688 20.957031 33.378906 C 20.957031 31.703125 22.320312 30.34375 23.996094 30.34375 C 25.671875 30.34375 27.035156 31.703125 27.035156 33.378906 C 27.035156 33.796875 26.695312 34.140625 26.273438 34.140625 C 25.855469 34.140625 25.515625 33.796875 25.515625 33.378906 C 25.515625 32.542969 24.832031 31.859375 23.996094 31.859375 C 23.160156 31.859375 22.476562 32.542969 22.476562 33.378906 C 22.476562 34.21875 23.160156 34.898438 23.996094 34.898438 C 25.671875 34.898438 27.035156 36.261719 27.035156 37.9375 C 27.035156 39.613281 25.671875 40.976562 23.996094 40.976562 C 22.320312 40.976562 20.957031 39.613281 20.957031 37.9375 C 20.957031 37.519531 21.300781 37.175781 21.71875 37.175781 C 22.136719 37.175781 22.476562 37.519531 22.476562 37.9375 C 22.476562 38.773438 23.160156 39.457031 23.996094 39.457031 C 24.832031 39.457031 25.515625 38.773438 25.515625 37.9375 C 25.515625 37.101562 24.832031 36.417969 23.996094 36.417969 Z M 28.554688 33.378906 C 28.554688 31.703125 29.914062 30.34375 31.589844 30.34375 C 33.269531 30.34375 34.628906 31.703125 34.628906 33.378906 L 34.628906 37.9375 C 34.628906 38.496094 34.464844 39.019531 34.199219 39.472656 L 34.40625 39.679688 C 34.703125 39.976562 34.703125 40.457031 34.40625 40.753906 C 34.257812 40.902344 34.066406 40.976562 33.871094 40.976562 C 33.675781 40.976562 33.480469 40.902344 33.332031 40.753906 L 33.125 40.546875 C 32.675781 40.8125 32.152344 40.976562 31.589844 40.976562 C 29.914062 40.976562 28.554688 39.613281 28.554688 37.9375 Z M 36.148438 31.101562 C 36.148438 30.683594 36.488281 30.34375 36.90625 30.34375 C 37.328125 30.34375 37.667969 30.683594 37.667969 31.101562 L 37.667969 39.457031 L 41.464844 39.457031 C 41.882812 39.457031 42.222656 39.796875 42.222656 40.214844 C 42.222656 40.632812 41.882812 40.976562 41.464844 40.976562 L 36.90625 40.976562 C 36.488281 40.976562 36.148438 40.632812 36.148438 40.214844 Z M 18.679688 44.773438 L 44.503906 44.773438 C 44.921875 44.773438 45.261719 44.429688 45.261719 44.011719 L 45.261719 27.304688 C 45.261719 26.886719 44.921875 26.542969 44.503906 26.542969 L 18.679688 26.542969 C 18.261719 26.542969 17.921875 26.886719 17.921875 27.304688 L 17.921875 44.011719 C 17.921875 44.429688 18.261719 44.773438 18.679688 44.773438 " fill-opacity="1" fill-rule="nonzero"/></g><g clip-path="url(#0d7b39c6b9)"><path fill="#6d6d6d" d="M 16.402344 38.667969 L 16.402344 31.082031 C 10.945312 30.9375 5.34375 29.980469 2.730469 28.152344 L 2.730469 34.898438 C 2.730469 36.355469 7.917969 38.4375 16.402344 38.667969 " fill-opacity="1" fill-rule="nonzero"/></g><g clip-path="url(#0315ba2325)"><path fill="#6d6d6d" d="M 2.730469 25.785156 C 2.730469 27.242188 7.917969 29.324219 16.402344 29.554688 L 16.402344 27.304688 C 16.402344 26.046875 17.421875 25.027344 18.679688 25.027344 L 33.109375 25.027344 L 33.109375 18.265625 C 30.320312 20.214844 24.09375 21.226562 17.921875 21.226562 C 11.746094 21.226562 5.523438 20.214844 2.730469 18.265625 L 2.730469 25.785156 " fill-opacity="1" fill-rule="nonzero"/></g><g clip-path="url(#c32faa7b01)"><path fill="#6d6d6d" d="M 33.109375 6.039062 C 33.109375 4.488281 27.195312 2.242188 17.921875 2.242188 C 8.648438 2.242188 2.730469 4.488281 2.730469 6.039062 C 2.730469 7.585938 8.648438 9.835938 17.921875 9.835938 C 27.195312 9.835938 33.109375 7.585938 33.109375 6.039062 " fill-opacity="1" fill-rule="nonzero"/></g><g clip-path="url(#3285092806)"><path fill="#6d6d6d" d="M 2.730469 15.910156 C 2.730469 17.460938 8.648438 19.710938 17.921875 19.710938 C 27.195312 19.710938 33.109375 17.460938 33.109375 15.910156 L 33.109375 8.390625 C 30.320312 10.34375 24.09375 11.355469 17.921875 11.355469 C 11.746094 11.355469 5.523438 10.34375 2.730469 8.390625 L 2.730469 15.910156 " fill-opacity="1" fill-rule="nonzero"/></g><path fill="#6d6d6d" d="M 31.589844 39.457031 C 31.726562 39.457031 31.855469 39.433594 31.980469 39.398438 L 31.8125 39.234375 C 31.515625 38.9375 31.515625 38.457031 31.8125 38.160156 C 32.109375 37.863281 32.589844 37.863281 32.886719 38.160156 L 33.054688 38.324219 C 33.085938 38.203125 33.109375 38.070312 33.109375 37.9375 L 33.109375 33.378906 C 33.109375 32.542969 32.429688 31.859375 31.589844 31.859375 C 30.753906 31.859375 30.074219 32.542969 30.074219 33.378906 L 30.074219 37.9375 C 30.074219 38.773438 30.753906 39.457031 31.589844 39.457031 " fill-opacity="1" fill-rule="nonzero"/></svg>